<svg width="167" height="134" viewBox="0 0 167 134" fill="none" xmlns="http://www.w3.org/2000/svg">
<path d="M150 133.333H16.6667C12.2464 133.333 8.00716 131.577 4.88155 128.452C1.75595 125.326 0 121.087 0 116.667V15.9417C0.186939 11.6483 2.02507 7.59299 5.13065 4.62251C8.23623 1.65202 12.3692 -0.00406032 16.6667 7.476e-06H150C154.42 7.476e-06 158.66 1.75595 161.785 4.88156C164.911 8.00717 166.667 12.2464 166.667 16.6667V116.667C166.667 121.087 164.911 125.326 161.785 128.452C158.66 131.577 154.42 133.333 150 133.333ZM16.6667 32.2333V116.667H150V32.2333L83.3333 76.6667L16.6667 32.2333ZM23.3333 16.6667L83.3333 56.6667L143.333 16.6667H23.3333Z" fill="#5B4DB5"/>
</svg>
